<svg xmlns="http://www.w3.org/2000/svg" width="18" height="18" viewBox="0 0 18 18"><defs><style>.a{fill:#ddd;}</style></defs><path class="a" d="M15.75,2.25H15V.75A.75.75,0,0,0,14.25,0H13.5a.75.75,0,0,0-.75.75v1.5H5.25V.75A.75.75,0,0,0,4.5,0H3.75A.75.75,0,0,0,3,.75v1.5H2.25A2.253,2.253,0,0,0,0,4.5V15.75A2.253,2.253,0,0,0,2.25,18h13.5A2.253,2.253,0,0,0,18,15.75V4.5a2.253,2.253,0,0,0-2.25-2.25Zm.75,13.5a.751.751,0,0,1-.75.75H2.25a.751.751,0,0,1-.75-.75V7.53h15Zm0,0" transform="translate(0)"/></svg>