<svg width="32" height="21" viewBox="0 0 32 21" fill="none" xmlns="http://www.w3.org/2000/svg">
<g opacity="0.3">
<path d="M15.476 20.0593C12.2684 20.0094 9.44101 18.8413 6.81891 17.0969C4.47567 15.5381 2.43349 13.6412 0.628543 11.4894C-0.169185 10.5389 -0.217742 9.5773 0.54114 8.66004C2.88993 5.82374 5.6133 3.43638 8.90688 1.72379C13.8722 -0.857557 18.6863 -0.457122 23.4019 2.37225C26.1239 4.00585 28.4408 6.10502 30.4788 8.52148C31.2932 9.48585 31.3418 10.4862 30.5621 11.4118C27.9441 14.5169 24.9336 17.1343 21.1863 18.8178C19.4244 19.6103 17.2421 20.0856 15.476 20.0593ZM15.5398 16.6909C19.2316 16.7061 22.2144 13.7715 22.2421 10.0969C22.2699 6.36274 19.337 3.37541 15.6217 3.35047C11.8897 3.32553 8.89716 6.26852 8.88329 9.97912C8.86942 13.7091 11.8106 16.6757 15.5398 16.6909Z" fill="white"/>
<path d="M15.5754 5.34981C18.251 5.38108 20.3076 7.44084 20.2952 10.0771C20.2842 12.6412 18.1272 14.7445 15.5438 14.7105C12.8462 14.6752 10.7689 12.5624 10.8253 9.90848C10.879 7.36199 13.0057 5.3199 15.5754 5.34981Z" fill="white"/>
</g>
</svg>
