<svg xmlns="http://www.w3.org/2000/svg" width="16.14" height="16.14" viewBox="0 0 16.14 16.14"><defs><style>.a{fill:#fbbb00;}.b{fill:#518ef8;}.c{fill:#28b446;}.d{fill:#f14336;}</style></defs><path class="a" d="M3.577,143.663l-.562,2.1L.962,145.8A8.084,8.084,0,0,1,.9,138.268h0l1.828.335.8,1.817a4.816,4.816,0,0,0,.045,3.243Z" transform="translate(0 -133.909)"/><path class="b" d="M269.379,208.176a8.067,8.067,0,0,1-2.877,7.8h0l-2.3-.117-.326-2.034a4.81,4.81,0,0,0,2.069-2.456h-4.315v-3.192h7.751Z" transform="translate(-253.381 -201.614)"/><path class="c" d="M42.669,314.018h0a8.072,8.072,0,0,1-12.16-2.469l2.615-2.141a4.8,4.8,0,0,0,6.916,2.457Z" transform="translate(-29.547 -299.656)"/><path class="d" d="M40.942,1.858,38.328,4a4.8,4.8,0,0,0-7.075,2.513L28.624,4.359h0a8.071,8.071,0,0,1,12.318-2.5Z" transform="translate(-27.722)"/></svg>