<svg width="60" height="60" viewBox="0 0 60 60" fill="none" xmlns="http://www.w3.org/2000/svg">
<path d="M30 60C46.5685 60 60 46.5685 60 30C60 13.4315 46.5685 0 30 0C13.4315 0 0 13.4315 0 30C0 46.5685 13.4315 60 30 60Z" fill="#3C8823"/>
<path d="M30.1417 42.8504C30.0945 42.8504 30.0473 42.8977 30 42.8977C29.9528 42.8977 29.9055 42.8504 29.8583 42.8504H30.1417Z" fill="#64FB32"/>
<path d="M53.2914 48.8976C47.811 55.6536 39.4016 60 30 60C20.5984 60 12.189 55.6536 6.70868 48.8976C10.6299 43.6536 16.6299 41.0551 21.5433 39.7795C21.1654 42.8976 22.7717 47.0551 22.8189 46.9606C24.4725 43.1811 30 42.8504 30 42.8504C30 42.8504 35.5276 43.1811 37.1339 46.9606C37.1811 47.0551 38.8347 42.8976 38.4095 39.7795C43.3701 41.0551 49.4173 43.6536 53.2914 48.8976Z" fill="#64FB32"/>
<path d="M36.7559 36.8504C36.7559 36.8504 36.7559 36.8504 36.7559 36.8976C36.7559 37.3701 36.5197 40.3937 30.1417 42.8032H29.8583C23.4803 40.3937 23.2441 37.3701 23.2441 36.8976C23.2441 36.8504 23.2441 36.8504 23.2441 36.8504C23.2441 36.2362 23.3858 35.622 23.5275 35.0079C25.3701 37.3228 27.5905 38.8819 30 38.8819C32.4094 38.8819 34.6299 37.3228 36.4724 35.0079C36.6142 35.622 36.7559 36.2362 36.7559 36.8504Z" fill="white"/>
<path d="M36.7559 36.8504C36.7559 36.8504 37.0866 40.252 30 42.8977C30 42.8977 35.5276 43.2284 37.1339 47.0079C37.2283 47.1024 40.3937 38.8819 36.7559 36.8504Z" fill="#3C8823"/>
<path d="M23.244 36.8504C19.6062 38.8819 22.7716 47.1024 22.8661 46.9606C24.5196 43.1811 29.9999 42.8504 29.9999 42.8504C22.9133 40.252 23.244 36.8504 23.244 36.8504Z" fill="#3C8823"/>
<path d="M39.9215 24.8976C39.4963 27.8268 38.2207 30.5669 36.0947 32.6457C35.6695 33.0709 35.2915 33.4016 34.8191 33.7323L34.0632 31.3228H25.9372L25.1813 33.7323C23.6695 32.5984 20.5041 29.4331 20.4569 26.4567C19.134 9.49606 32.1262 13.0866 32.1262 13.0866C40.8663 12.4724 40.5829 20.1732 39.9215 24.8976Z" fill="white"/>
<path d="M41.6693 27.9685C41.0079 29.0551 40.1103 29.811 39.2599 30.0945C39.5906 29.3386 39.8741 28.5354 40.1103 27.7323C40.1103 27.7323 40.1103 27.7323 40.1103 27.685C40.2993 26.9764 40.4882 26.2677 40.6772 25.559H40.63C40.8189 24.8504 41.0079 24.1417 41.1496 23.433C41.3386 23.433 41.5276 23.5275 41.7166 23.622C42.7559 24.2834 42.7087 26.2204 41.6693 27.9685Z" fill="white"/>
<path d="M20.7402 30.0945C19.8898 29.811 18.9922 29.0551 18.3308 27.9685C17.2442 26.2205 17.2442 24.2835 18.2835 23.6693C18.378 23.6221 18.4253 23.5748 18.5198 23.5748C19.0867 25.7953 19.7481 27.4488 19.8898 27.7795C20.1261 28.5355 20.4095 29.3386 20.7402 30.0945Z" fill="white"/>
<path d="M35.1495 8.36218C35.5275 4.01572 28.6299 4.29918 28.6299 4.29918C18.1889 5.811 17.0551 15.5433 17.0551 15.5433L18.4724 13.8425C16.2519 18.7086 19.6062 27.0708 19.8897 27.7323C21.6377 33.5433 25.5117 38.8819 29.9999 38.8819C34.4881 38.8819 38.3621 33.5433 40.1102 27.7323C40.1102 27.7323 40.1102 27.7323 40.1102 27.685C40.2991 26.9764 40.4881 26.2677 40.6299 25.559H40.5826C41.5275 21.7795 42.5669 17.9527 42.5669 17.9527C45.2598 4.39367 35.1495 8.36218 35.1495 8.36218ZM39.9212 24.8976C39.496 27.8267 38.2204 30.5669 36.0944 32.6456C35.6692 33.0708 35.244 33.4016 34.8188 33.7323L34.0629 31.3701H25.9369L25.181 33.7795C23.6692 32.6456 22.3936 31.0866 21.3543 29.2913C20.8818 28.3464 20.5984 27.3543 20.4566 26.5039C19.1338 9.54328 32.1259 13.1338 32.1259 13.1338C40.8661 12.4724 40.5826 20.1732 39.9212 24.8976Z" fill="#324A5E"/>
<path d="M35.1495 8.36218C35.5275 4.01572 28.6299 4.29918 28.6299 4.29918C18.1889 5.811 17.0551 15.5433 17.0551 15.5433L18.4724 13.8425C16.2519 18.7086 19.6062 27.0708 19.8897 27.7323C21.6377 33.5433 25.5117 38.8819 29.9999 38.8819C34.4881 38.8819 38.3621 33.5433 40.1102 27.7323C40.1102 27.7323 40.1102 27.7323 40.1102 27.685C40.2991 26.9764 40.4881 26.2677 40.6299 25.559H40.5826C41.5275 21.7795 42.5669 17.9527 42.5669 17.9527C45.2598 4.39367 35.1495 8.36218 35.1495 8.36218ZM39.9212 24.8976C39.496 27.8267 38.2204 30.5669 36.0944 32.6456C35.6692 33.0708 35.244 33.4016 34.8188 33.7323L34.0629 31.3701H25.9369L25.181 33.7795C23.6692 32.6456 22.3936 31.0866 21.3543 29.2913C20.8818 28.3464 20.5984 27.3543 20.4566 26.5039C19.1338 9.54328 32.1259 13.1338 32.1259 13.1338C40.8661 12.4724 40.5826 20.1732 39.9212 24.8976Z" fill="#324A5E"/>
<path d="M35.1495 8.36218C35.5275 4.01572 28.6299 4.29918 28.6299 4.29918C18.1889 5.811 17.0551 15.5433 17.0551 15.5433L18.4724 13.8425C16.2519 18.7086 19.6062 27.0708 19.8897 27.7323C21.6377 33.5433 25.5117 38.8819 29.9999 38.8819C34.4881 38.8819 38.3621 33.5433 40.1102 27.7323C40.1102 27.7323 40.1102 27.7323 40.1102 27.685C40.2991 26.9764 40.4881 26.2677 40.6299 25.559H40.5826C41.5275 21.7795 42.5669 17.9527 42.5669 17.9527C45.2598 4.39367 35.1495 8.36218 35.1495 8.36218ZM39.9212 24.8976C39.496 27.8267 38.2204 30.5669 36.0944 32.6456C35.6692 33.0708 35.244 33.4016 34.8188 33.7323L34.0629 31.3701H25.9369L25.181 33.7795C23.6692 32.6456 20.5039 29.4803 20.4566 26.5039C19.1338 9.54328 32.1259 13.1338 32.1259 13.1338C40.8661 12.4724 40.5826 20.1732 39.9212 24.8976Z" fill="black"/>
<path d="M26.6929 32.9764C27.496 33.874 28.6771 34.4882 30 34.4882C31.3228 34.4882 32.5039 33.9213 33.307 32.9764H26.6929Z" fill="white"/>
</svg>
