<svg width="60" height="60" viewBox="0 0 60 60" fill="none" xmlns="http://www.w3.org/2000/svg">
<path d="M30.0612 58.164L41.3527 54.907C48.5729 49.2392 53.2123 40.4332 53.2123 30.542C53.2123 15.3405 42.2565 2.69962 27.8106 0.079895C12.2643 1.2015 0 14.1679 0 30C0 38.3489 3.34793 45.8396 8.85188 51.2781L10.0897 52.4381L30.0612 58.164Z" fill="#3C8823"/>
<path d="M29.9999 0C28.708 0 27.4351 0.0817969 26.1863 0.240234C40.9541 2.11383 52.3727 14.7234 52.3727 30C52.3727 41.2043 46.2303 50.9735 37.1294 56.1252L49.9096 52.4387C56.0986 46.9432 59.9999 38.9278 59.9999 30C59.9999 13.4314 46.5685 0 29.9999 0V0Z" fill="#3C8823"/>
<path d="M39.2444 35.975C41.2411 34.8041 42.4674 32.6615 42.4667 30.3468C42.4645 23.6822 42.4634 20.0357 42.4634 20.0357C42.4634 13.1524 36.8834 7.57239 30 7.57239C23.1167 7.57239 17.5367 13.1524 17.5367 20.0357C17.5367 20.0357 17.5356 23.6823 17.5334 30.3468C17.5326 32.6615 18.7589 34.8041 20.7557 35.975L22.1616 36.7995C24.5386 38.1936 27.2445 38.9285 30.0002 38.9285C32.7558 38.9285 35.4617 38.1936 37.8387 36.7995L39.2444 35.975Z" fill="#EFC984"/>
<path d="M42.4632 20.0357C42.4632 14.8687 39.3188 10.4362 34.8392 8.54688V38.1511C35.8795 37.8091 36.8857 37.3582 37.8383 36.7995L39.2442 35.975C41.241 34.804 42.4672 32.6615 42.4665 30.3468C42.4644 23.6821 42.4632 20.0357 42.4632 20.0357Z" fill="#EABC6B"/>
<path d="M30 48.9965L37.9078 43.4318L34.7158 39.5655V30.7522H25.2843V39.5655L22.0922 43.4318L30 48.9965Z" fill="white"/>
<path d="M45.4186 41.6253L36.6856 39.9446C35.3068 42.1902 32.8283 43.688 29.9999 43.688C27.1716 43.688 24.6931 42.1902 23.3143 39.9446L14.5812 41.6253C11.2554 42.2654 8.85193 45.1757 8.85193 48.5624V51.2781C13.5289 55.9266 19.7301 59.0421 26.6396 59.8121C27.1578 59.8699 27.6822 59.8382 28.1914 59.7259L30.4127 59.236C30.9398 59.1198 31.4869 59.1302 32.0092 59.2665C32.7339 59.4555 33.5008 59.4012 34.1917 59.1121C40.9935 56.2662 46.5638 51.0647 49.8802 44.5247C48.8563 43.056 47.2824 41.9841 45.4186 41.6253Z" fill="#64FB32"/>
<path d="M51.1479 48.5623C51.1479 46.6501 50.3814 44.89 49.1155 43.6045C44.7051 52.2569 36.2208 58.4855 26.1892 59.7593C27.405 59.9134 28.6433 59.9956 29.9001 59.9997H29.9031C29.9421 59.9998 30.0413 60 30.0965 59.9997H30.0995C38.3112 59.973 45.7459 56.647 51.1478 51.278V48.5623H51.1479Z" fill="#64FB32"/>
<path d="M30.6068 59.1934C31.7243 55.9582 34.0442 48.6407 34.596 42.199C33.3046 43.1352 31.7171 43.688 30 43.688C28.283 43.688 26.6955 43.1352 25.4041 42.199C25.9704 48.8108 28.3998 56.3464 29.4795 59.4419L30.6068 59.1934Z" fill="#BA1B30"/>
<path d="M29.3868 59.1751C29.4948 59.4876 29.5918 59.7634 29.6749 59.9962C30.29 60.0027 30.0761 59.9988 30.325 59.9962C30.4385 59.6785 30.5776 59.2816 30.7354 58.8184C30.29 58.9475 29.8405 59.0664 29.3868 59.1751Z" fill="#BA1B30"/>
<path d="M38.3582 19.2018C35.0279 15.615 34.4096 12.3565 34.4096 12.3565C32.7554 16.6971 28.5541 19.7809 23.6326 19.7809C23.482 19.7809 23.3321 19.778 23.183 19.7724C22.0505 19.7289 21.1099 20.6366 21.1099 21.7699V25.411C21.1832 30.2594 25.1339 34.1678 29.9999 34.1678C34.8657 34.1678 38.8165 30.2595 38.8898 25.411V20.5588C38.8898 20.0558 38.7004 19.5703 38.3582 19.2018Z" fill="white"/>
<path d="M20.1419 40.2483C19.7624 40.4809 19.6869 41.001 19.9848 41.3318L21.8339 43.3857C22.0983 43.6794 22.073 44.1321 21.7776 44.3945L20.5584 45.4778C20.3024 45.7052 20.1758 46.0488 20.2362 46.3859C20.9174 50.1916 27.0062 57.4604 29.209 59.9901C29.3642 59.9939 29.5198 59.9966 29.6756 59.9982C28.61 57.0134 25.284 47.094 25.284 39.5654V37.097L20.1419 40.2483Z" fill="#3C8823"/>
<path d="M39.8578 40.2483L34.7158 37.0971V39.5655C34.7158 47.0941 31.3898 57.0135 30.3242 59.9984C30.4801 59.9968 30.6356 59.9941 30.7909 59.9903C32.9936 57.4605 39.0824 50.1918 39.7637 46.386C39.824 46.0488 39.6973 45.7053 39.4414 45.4779L38.2222 44.3946C37.9267 44.1322 37.9016 43.6795 38.1659 43.3859L40.015 41.3319C40.3128 41.001 40.2373 40.4809 39.8578 40.2483Z" fill="#3C8823"/>
<path d="M40.2377 20.5734H38.8898V25.0265H40.2377C41.4677 25.0265 42.4646 24.0292 42.4642 22.7992C42.4639 21.5699 41.4671 20.5734 40.2377 20.5734Z" fill="white"/>
</svg>
